<svg xmlns="http://www.w3.org/2000/svg" xmlns:xlink="http://www.w3.org/1999/xlink" width="335.759" height="141.968" viewBox="0 0 335.759 141.968">
  <defs>
    <clipPath id="clip-path">
      <rect id="Rectangle_59" data-name="Rectangle 59" width="335.759" height="141.968"/>
    </clipPath>
    <clipPath id="clip-path-7">
      <rect id="Rectangle_66" data-name="Rectangle 66" width="335.759" height="141.968" transform="translate(0 0)"/>
    </clipPath>
  </defs>
  <g id="SAF_LOGO2018" transform="translate(50 43.61)">
    <g id="Group_95" data-name="Group 95" transform="translate(-50 -43.61)" clip-path="url(#clip-path)">
      <path id="Path_611" data-name="Path 611" d="M112.334,24.912c-4.339-7.5-29.586-1.035-56.39,14.46S10.92,73.5,15.254,81c3.729,6.449,22.9,2.566,45.239-8.48,1-.548.93-1.728-.373-1.3-13.766,5.071-25.247,5.387-28.226,0C27.946,64.079,40.457,49.606,59.835,38.9s38.29-13.6,42.238-6.449c1.807,3.273.154,8.076-4.023,13.358-.018.022-.031.048-.053.079-1.544,1.917-.421,2.5.684,1.562,10.691-9.467,16.258-18.022,13.652-22.54" transform="translate(13.731 6.903)" fill="#ea0029"/>
    </g>
    <g id="Group_96" data-name="Group 96" transform="translate(-50 -43.61)" clip-path="url(#clip-path)">
      <path id="Path_612" data-name="Path 612" d="M138.249,99.842a17.491,17.491,0,0,1-5.839-2.615l2.711-6.115a20.365,20.365,0,0,0,5.08,2.321,18.8,18.8,0,0,0,5.4.807,9.524,9.524,0,0,0,4.229-.759,2.348,2.348,0,0,0,1.47-2.136,2.373,2.373,0,0,0-1.334-2.053,18.577,18.577,0,0,0-5.014-1.579,27.38,27.38,0,0,1-7.212-2.277,8.528,8.528,0,0,1-3.611-3.194,8.976,8.976,0,0,1-1.031-4.457,9.133,9.133,0,0,1,1.7-5.4,11.167,11.167,0,0,1,4.777-3.768,17.19,17.19,0,0,1,7.032-1.356,24.044,24.044,0,0,1,6.87.987,14.18,14.18,0,0,1,5.212,2.6L156.03,76.96a17.924,17.924,0,0,0-4.549-2.325,15.045,15.045,0,0,0-4.782-.8,7.005,7.005,0,0,0-3.768.895,2.741,2.741,0,0,0-1.421,2.417,1.99,1.99,0,0,0,.5,1.382,5.124,5.124,0,0,0,1.882,1.075,31.057,31.057,0,0,0,4.141,1.127,28.151,28.151,0,0,1,7.015,2.316,8.815,8.815,0,0,1,3.6,3.176,8.474,8.474,0,0,1,1.062,4.343,8.819,8.819,0,0,1-3.725,7.515q-3.725,2.737-10.481,2.733a28.332,28.332,0,0,1-7.256-.97" transform="translate(-52.387 -18.621)" fill="#2cb34a"/>
    </g>
    <g id="Group_97" data-name="Group 97" transform="translate(-50 -43.61)" clip-path="url(#clip-path)">
      <path id="Path_613" data-name="Path 613" d="M218.455,104.74a6.932,6.932,0,0,0,1.193-4.365,7.085,7.085,0,0,0-1.193-4.435,4.054,4.054,0,0,0-3.4-1.544,4.1,4.1,0,0,0-3.4,1.588,7.118,7.118,0,0,0-1.242,4.484,6.739,6.739,0,0,0,1.193,4.295,4.172,4.172,0,0,0,3.448,1.492,4.08,4.08,0,0,0,3.4-1.514m9.375-15.995v23.348h-8.186v-3.172a6.82,6.82,0,0,1-2.939,2.6,9.538,9.538,0,0,1-4.229.948,9.8,9.8,0,0,1-5.335-1.474,9.916,9.916,0,0,1-3.659-4.207,14.526,14.526,0,0,1-1.312-6.317,14.743,14.743,0,0,1,1.342-6.436,10.52,10.52,0,0,1,3.672-4.369,9.354,9.354,0,0,1,5.291-1.562,8.953,8.953,0,0,1,4.2.987,7.517,7.517,0,0,1,2.961,2.641V88.741h8.191Z" transform="translate(-91.543 -30.319)" fill="#2cb34a"/>
    </g>
    <g id="Group_98" data-name="Group 98" transform="translate(-50 -43.61)" clip-path="url(#clip-path)">
      <path id="Path_614" data-name="Path 614" d="M273.08,75.857v-.645a10.513,10.513,0,0,1,2.461-7.4q2.461-2.665,7.146-2.672a12.048,12.048,0,0,1,4.321.649v6.392a9.814,9.814,0,0,0-2.2-.325,3.552,3.552,0,0,0-2.444.851A3.282,3.282,0,0,0,281.4,75.3v.557h4.545v6.115H281.4V99.209H273.08V81.969s.118-6.111,0-6.111" transform="translate(-131.345 -17.431)" fill="#2cb34a"/>
    </g>
    <g id="Group_99" data-name="Group 99" transform="translate(-50 -43.61)" clip-path="url(#clip-path)">
      <path id="Path_615" data-name="Path 615" d="M324.453,104.74a6.9,6.9,0,0,0,1.2-4.365,7.084,7.084,0,0,0-1.2-4.435,4.046,4.046,0,0,0-3.4-1.544,4.1,4.1,0,0,0-3.4,1.588,7.145,7.145,0,0,0-1.237,4.484,6.739,6.739,0,0,0,1.193,4.295,4.158,4.158,0,0,0,3.444,1.492,4.06,4.06,0,0,0,3.4-1.514m9.384-15.995v23.348h-8.182v-3.172a6.882,6.882,0,0,1-2.944,2.6,9.492,9.492,0,0,1-4.225.948,9.614,9.614,0,0,1-8.985-5.681,14.462,14.462,0,0,1-1.312-6.317,14.868,14.868,0,0,1,1.334-6.436,10.6,10.6,0,0,1,3.681-4.369,9.34,9.34,0,0,1,5.286-1.562,8.94,8.94,0,0,1,4.2.987,7.53,7.53,0,0,1,2.966,2.641V88.741h8.177Z" transform="translate(-151.052 -30.319)" fill="#2cb34a"/>
    </g>
    <g id="Group_100" data-name="Group 100" transform="translate(-50 -43.61)" clip-path="url(#clip-path)">
      <path id="Path_616" data-name="Path 616" d="M394.871,88.814V96.4a9.026,9.026,0,0,0-3.812-.926q-5.245,0-5.242,5.014V112.21h-8.322V95.57a55.484,55.484,0,0,0-.364-6.708h7.813l.509,3.909a6.547,6.547,0,0,1,2.667-3.317,7.7,7.7,0,0,1,4.133-1.145,5.57,5.57,0,0,1,2.619.5" transform="translate(-189.748 -30.437)" fill="#2cb34a"/>
    </g>
    <g id="Group_101" data-name="Group 101" transform="translate(-50 -43.61)" clip-path="url(#clip-path-7)">
      <rect id="Rectangle_65" data-name="Rectangle 65" width="8.318" height="23.348" transform="translate(207.509 58.426)" fill="#2cb34a"/>
    </g>
    <g id="Group_102" data-name="Group 102" transform="translate(-50 -43.61)" clip-path="url(#clip-path)">
      <path id="Path_617" data-name="Path 617" d="M454.242,109.247a11.585,11.585,0,0,1-3.352-8.774,12.623,12.623,0,0,1,1.623-6.48,11.145,11.145,0,0,1,4.576-4.343,14.449,14.449,0,0,1,6.8-1.54,17.3,17.3,0,0,1,5.058.755,10.6,10.6,0,0,1,3.948,2.053l-2.119,5.734a9.956,9.956,0,0,0-2.891-1.6,9.342,9.342,0,0,0-3.176-.6,5.152,5.152,0,0,0-3.948,1.474,6.166,6.166,0,0,0-1.382,4.369,6.341,6.341,0,0,0,1.382,4.44,5.19,5.19,0,0,0,4,1.492,9.037,9.037,0,0,0,3.146-.6,9.811,9.811,0,0,0,2.869-1.606l2.119,5.65a10.429,10.429,0,0,1-4.018,2.071,18.951,18.951,0,0,1-5.357.733q-5.929-.013-9.283-3.224" transform="translate(-231.15 -30.324)" fill="#2cb34a"/>
    </g>
    <g id="Group_103" data-name="Group 103" transform="translate(-50 -43.61)" clip-path="url(#clip-path)">
      <path id="Path_618" data-name="Path 618" d="M522.172,100.273a7.239,7.239,0,0,0-1.136-4.479,4,4,0,0,0-3.369-1.443,4.147,4.147,0,0,0-3.453,1.443,7.176,7.176,0,0,0-1.154,4.479,7.244,7.244,0,0,0,1.154,4.527,4.137,4.137,0,0,0,3.453,1.448q4.5.007,4.505-5.975m-11.314,10.709a10.368,10.368,0,0,1-4.462-4.229,14.2,14.2,0,0,1,0-12.964,10.434,10.434,0,0,1,4.462-4.225,14.8,14.8,0,0,1,6.8-1.474,14.317,14.317,0,0,1,6.725,1.5,10.573,10.573,0,0,1,4.431,4.229,14.087,14.087,0,0,1,0,12.911,10.562,10.562,0,0,1-4.431,4.225,14.33,14.33,0,0,1-6.725,1.5,14.759,14.759,0,0,1-6.8-1.47" transform="translate(-261.426 -30.313)" fill="#2cb34a"/>
    </g>
    <g id="Group_104" data-name="Group 104" transform="translate(-50 -43.61)" clip-path="url(#clip-path)">
      <path id="Path_619" data-name="Path 619" d="M607.254,90.589c1.307,1.654,1.952,4.185,1.952,7.581V112.1h-8.318V98.4a5.435,5.435,0,0,0-.623-2.983,2.343,2.343,0,0,0-2.093-.921,3.221,3.221,0,0,0-2.716,1.285,5.935,5.935,0,0,0-.965,3.632V112.1h-8.318V98.4a5.372,5.372,0,0,0-.645-2.983,2.353,2.353,0,0,0-2.071-.921,3.137,3.137,0,0,0-2.685,1.285,6.058,6.058,0,0,0-.943,3.632V112.1H571.5V95.458a53.743,53.743,0,0,0-.364-6.708h7.813l.412,3.268a7.218,7.218,0,0,1,2.966-2.9,9.309,9.309,0,0,1,4.387-1q5.014,0,6.8,4.225a9.3,9.3,0,0,1,3.286-3.08,8.877,8.877,0,0,1,4.435-1.145q4.06-.007,6.01,2.479" transform="translate(-298.646 -30.324)" fill="#2cb34a"/>
    </g>
    <g id="Group_105" data-name="Group 105" transform="translate(-50 -43.61)" clip-path="url(#clip-path)">
      <rect id="Rectangle_70" data-name="Rectangle 70" width="8.318" height="7.489" transform="translate(207.509 46.98)" fill="#2cb34a"/>
    </g>
    <g id="Group_106" data-name="Group 106" transform="translate(-50 -43.61)" clip-path="url(#clip-path)">
      <path id="Path_620" data-name="Path 620" d="M435.675,155.58v2.391h-5.014v13.411H428V157.971H423.01V155.58Z" transform="translate(-215.501 -68.195)" fill="#2cb34a"/>
    </g>
    <g id="Group_107" data-name="Group 107" transform="translate(-50 -43.61)" clip-path="url(#clip-path)">
      <path id="Path_621" data-name="Path 621" d="M451.853,164.22l3.119,9.441,3.023-9.441h2.685l3.049,9.441,3.071-9.441h2.641l-4.378,12.012h-2.689l-3.049-8.892-3.045,8.892h-2.663L449.19,164.22Z" transform="translate(-230.196 -73.045)" fill="#2cb34a"/>
    </g>
    <g id="Group_108" data-name="Group 108" transform="translate(-50 -43.61)" clip-path="url(#clip-path)">
      <path id="Path_622" data-name="Path 622" d="M506.2,176.119v-1.47a4.875,4.875,0,0,1-3.975,1.579c-2.6,0-4.22-1.6-4.22-3.725,0-2.189,1.65-3.589,4.536-3.61h3.632v-.36c0-1.514-.97-2.413-2.865-2.413a6.349,6.349,0,0,0-3.545,1.22l-1.062-1.807a8.782,8.782,0,0,1,5.168-1.514c3.093,0,4.83,1.579,4.852,4.22l.022,7.879Zm-.022-4.22v-1.106h-3.251c-1.693,0-2.483.452-2.483,1.6,0,1.084.882,1.781,2.325,1.781,1.851,0,3.273-.97,3.409-2.277" transform="translate(-257.598 -72.933)" fill="#2cb34a"/>
    </g>
    <g id="Group_109" data-name="Group 109" transform="translate(-50 -43.61)" clip-path="url(#clip-path)">
      <path id="Path_623" data-name="Path 623" d="M528.843,164.22l3.115,9.441,3.023-9.441h2.689l3.045,9.441,3.071-9.441h2.641l-4.378,12.012h-2.685l-3.049-8.892-3.049,8.892H530.6L526.18,164.22Z" transform="translate(-273.41 -73.045)" fill="#2cb34a"/>
    </g>
    <g id="Group_110" data-name="Group 110" transform="translate(-50 -43.61)" clip-path="url(#clip-path)">
      <path id="Path_624" data-name="Path 624" d="M586.041,171.115h-9.077a3.66,3.66,0,0,0,3.725,3.005,4.666,4.666,0,0,0,3.387-1.4l1.378,1.465a6.545,6.545,0,0,1-4.966,2.031,6.094,6.094,0,1,1-.066-12.187c4.22,0,5.936,2.751,5.62,7.085m-2.259-1.9a3.087,3.087,0,0,0-3.343-3.115,3.406,3.406,0,0,0-3.523,3.115Z" transform="translate(-300.448 -72.938)" fill="#2cb34a"/>
    </g>
    <g id="Group_111" data-name="Group 111" transform="translate(-50 -43.61)" clip-path="url(#clip-path)">
      <path id="Path_625" data-name="Path 625" d="M615.358,164.246v1.737l-6.866,8.125,7.067.026v2.123l-10.27-.026v-1.759l6.861-8.129h-6.659V164.22Z" transform="translate(-317.814 -73.045)" fill="#2cb34a"/>
    </g>
    <g id="Group_112" data-name="Group 112" transform="translate(-50 -43.61)" clip-path="url(#clip-path)">
      <path id="Path_626" data-name="Path 626" d="M641.615,176.119v-1.47a4.875,4.875,0,0,1-3.975,1.579c-2.6,0-4.22-1.6-4.22-3.725,0-2.189,1.649-3.589,4.536-3.61h3.637v-.36c0-1.514-.974-2.413-2.869-2.413a6.349,6.349,0,0,0-3.545,1.22l-1.062-1.807a8.786,8.786,0,0,1,5.172-1.514c3.093,0,4.83,1.579,4.852,4.22l.022,7.879Zm-.022-4.22v-1.106h-3.251c-1.693,0-2.483.452-2.483,1.6,0,1.084.882,1.781,2.325,1.781,1.851,0,3.273-.97,3.409-2.277" transform="translate(-333.604 -72.933)" fill="#2cb34a"/>
    </g>
  </g>
</svg>
